HIERARCHY
ROOT Hips
{
	OFFSET 0.000000 0.000000 0.000000
	CHANNELS 6 Xposition Yposition Zposition Xrotation Yrotation Zrotation
	JOINT LeftUpLeg_virtual
	{
		OFFSET 0.000000 0.000000 0.000000
		CHANNELS 3 Xrotation Yrotation Zrotation
		JOINT LeftUpLeg
		{
			OFFSET 15.427100 -6.655098 0.678600
			CHANNELS 3 Xrotation Yrotation Zrotation
			JOINT LeftLeg
			{
				OFFSET 4.081073 -39.591068 13.024000
				CHANNELS 3 Xrotation Yrotation Zrotation
				JOINT LeftFoot
				{
					OFFSET -4.081074 -37.707932 -15.979700
					CHANNELS 3 Xrotation Yrotation Zrotation
					JOINT LeftToeBase
					{
						OFFSET 5.346399 -15.068900 20.645000
						CHANNELS 3 Xrotation Yrotation Zrotation
						JOINT LeftToe_End
						{
							OFFSET 2.754700 0.931300 11.300900
							CHANNELS 3 Xrotation Yrotation Zrotation
							End Site
							{
								OFFSET 0 0 0
							}
						}
					}
				}
			}
		}
	}
	JOINT RightUpLeg_virtual
	{
		OFFSET 0.000000 0.000000 0.000000
		CHANNELS 3 Xrotation Yrotation Zrotation
		JOINT RightUpLeg
		{
			OFFSET -15.569500 -6.655098 0.678600
			CHANNELS 3 Xrotation Yrotation Zrotation
			JOINT RightLeg
			{
				OFFSET -4.081825 -39.591045 13.023800
				CHANNELS 3 Xrotation Yrotation Zrotation
				JOINT RightFoot
				{
					OFFSET 4.081824 -37.707954 -15.979600
					CHANNELS 3 Xrotation Yrotation Zrotation
					JOINT RightToeBase
					{
						OFFSET -5.346400 -15.068900 20.645000
						CHANNELS 3 Xrotation Yrotation Zrotation
						JOINT RightToe_End
						{
							OFFSET -2.754700 0.931300 11.300900
							CHANNELS 3 Xrotation Yrotation Zrotation
							End Site
							{
								OFFSET 0 0 0
							}
						}
					}
				}
			}
		}
	}
	JOINT Spine_virtual
	{
		OFFSET 0.000000 0.000000 0.000000
		CHANNELS 3 Xrotation Yrotation Zrotation
		JOINT Spine
		{
			OFFSET -0.279200 12.230698 -2.892100
			CHANNELS 3 Xrotation Yrotation Zrotation
			JOINT Spine1
			{
				OFFSET -0.232667 10.192268 -1.242267
				CHANNELS 3 Xrotation Yrotation Zrotation
				JOINT Spine1_split
				{
					OFFSET -0.232667 10.192268 -1.242267
					CHANNELS 3 Xrotation Yrotation Zrotation
					JOINT Spine2
					{
						OFFSET -0.232667 10.192268 -1.242267
						CHANNELS 3 Xrotation Yrotation Zrotation
						JOINT Neck_virtual
						{
							OFFSET 0.000000 0.000000 0.000000
							CHANNELS 3 Xrotation Yrotation Zrotation
							JOINT Neck
							{
								OFFSET -0.418800 17.814194 8.416900
								CHANNELS 3 Xrotation Yrotation Zrotation
								JOINT Head
								{
									OFFSET 0.000000 7.031097 3.806800
									CHANNELS 3 Xrotation Yrotation Zrotation
									JOINT HeadTop_End
									{
										OFFSET 0.000000 24.646606 12.978600
										CHANNELS 3 Xrotation Yrotation Zrotation
										End Site
										{
											OFFSET 0 0 0
										}
									}
								}
							}
						}
						JOINT LeftShoulder_virtual
						{
							OFFSET 0.000000 0.000000 0.000000
							CHANNELS 3 Xrotation Yrotation Zrotation
							JOINT LeftShoulder
							{
								OFFSET 8.476499 7.247704 -3.868750
								CHANNELS 3 Xrotation Yrotation Zrotation
								JOINT LeftShoulder_split
								{
									OFFSET 8.476499 7.247704 -3.868750
									CHANNELS 3 Xrotation Yrotation Zrotation
									JOINT LeftArm
									{
										OFFSET 9.308998 -2.777710 0.208600
										CHANNELS 3 Xrotation Yrotation Zrotation
										JOINT LeftForeArm
										{
											OFFSET 29.972298 0.000000 0.000000
											CHANNELS 3 Xrotation Yrotation Zrotation
											JOINT LeftHand
											{
												OFFSET 26.026505 0.000000 0.000000
												CHANNELS 3 Xrotation Yrotation Zrotation
												End Site
												{
													OFFSET 0 0 0
												}
											}
										}
									}
								}
							}
						}
						JOINT RightShoulder_virtual
						{
							OFFSET 0.000000 0.000000 0.000000
							CHANNELS 3 Xrotation Yrotation Zrotation
							JOINT RightShoulder
							{
								OFFSET -7.570500 7.247704 -3.868750
								CHANNELS 3 Xrotation Yrotation Zrotation
								JOINT RightShoulder_split
								{
									OFFSET -7.570500 7.247704 -3.868750
									CHANNELS 3 Xrotation Yrotation Zrotation
									JOINT RightArm
									{
										OFFSET -9.308998 -2.777710 0.208500
										CHANNELS 3 Xrotation Yrotation Zrotation
										JOINT RightForeArm
										{
											OFFSET -29.972300 0.000000 0.000000
											CHANNELS 3 Xrotation Yrotation Zrotation
											JOINT RightHand
											{
												OFFSET -26.026505 0.000000 0.000000
												CHANNELS 3 Xrotation Yrotation Zrotation
												End Site
												{
													OFFSET 0 0 0
												}
											}
										}
									}
								}
							}
						}
					}
				}
			}
		}
	}
}
MOTION
Frames: 4
Frame Time: 0.03333333
15.053929 86.256676 -6.876183 0.000000 0.000000 0.000000 9.580409 -56.647776 17.945323 -22.403830 28.581371 30.433984 24.684398 -11.635204 -7.440738 5.023801 -5.433272 -8.049483 -4.356340 -5.758978 -0.816891 0.000000 0.000000 0.000000 8.830782 -58.217356 17.821948 -27.304492 -18.790914 -29.367945 34.436332 11.885081 3.183714 -17.298525 -3.249591 26.731880 6.834115 0.578778 -10.507356 0.000000 0.000000 0.000000 9.714017 -52.170720 18.865836 5.555129 -1.411816 1.494130 5.285150 -2.423605 -5.593985 0.108959 -1.265010 0.243890 0.000000 0.000000 0.000000 10.174044 -2.773337 -2.473848 -7.834241 36.740154 34.613944 -145.186995 82.567288 159.088315 0.000000 0.000000 0.000000 10.061481 -6.601776 -0.308437 -4.338245 5.458931 4.936728 -0.032402 -9.878421 -1.229165 -26.699587 13.259008 -61.940110 -14.782049 -55.586272 -9.532358 0.000000 0.000000 0.000000 3.024769 -9.345345 -2.280153 6.105503 13.167175 -15.125560 -16.792713 2.953332 -7.188902 -22.085813 -14.105649 56.707007 3.562753 36.260556 13.273874 0.000000 0.000000 0.000000 
14.884307 86.199554 -7.889423 0.000000 0.000000 0.000000 10.965287 -58.362949 19.502109 -24.415652 25.611693 32.420541 24.912208 -12.791612 -7.647951 8.754251 -6.693629 -7.294671 -5.363228 -5.443103 -1.913368 0.000000 0.000000 0.000000 10.220390 -59.942888 19.457937 -28.471218 -16.769067 -28.360301 35.460932 12.247019 3.551427 -16.593941 -2.307079 25.574238 5.868490 0.267271 -9.772904 0.000000 0.000000 0.000000 10.734693 -53.865795 20.367107 5.476967 -0.989964 0.802113 4.710221 -1.906719 -6.095710 0.148328 -1.282066 0.241063 0.000000 0.000000 0.000000 9.907264 -2.354694 -2.745883 -9.737906 37.543699 36.996498 -153.791258 83.905452 167.583978 0.000000 0.000000 0.000000 9.511971 -6.122523 -0.477567 -4.649248 7.329703 5.006655 0.810720 -11.932386 -1.323810 -27.837162 14.458836 -62.491327 -15.396155 -58.824943 -9.403289 0.000000 0.000000 0.000000 1.953360 -9.232298 -2.653445 6.205147 12.602118 -15.140888 -17.454965 2.377165 -8.161577 -21.598045 -13.255040 57.932353 5.413441 34.721072 11.890646 0.000000 0.000000 0.000000 
14.527785 86.341881 -8.791920 0.000000 0.000000 0.000000 12.295803 -59.521151 21.041438 -26.362105 22.763497 33.520588 24.793296 -13.568603 -7.568600 11.779409 -7.401427 -6.326570 -5.004651 -5.069278 -2.851062 0.000000 0.000000 0.000000 11.737989 -61.296863 21.291161 -28.884870 -14.566205 -26.920257 36.372434 12.429302 3.626590 -16.350926 -1.669775 24.276994 5.046442 -0.068340 -8.638045 0.000000 0.000000 0.000000 11.629325 -55.046882 21.723043 5.134171 -0.528571 0.127836 4.244167 -1.512227 -6.588102 0.187703 -1.313215 0.246734 0.000000 0.000000 0.000000 9.740881 -2.065428 -2.988468 -11.540703 38.347578 38.831907 -163.881674 85.195477 177.510715 0.000000 0.000000 0.000000 9.030492 -5.762786 -0.678403 -4.984747 8.895603 5.349586 1.810327 -13.701274 -1.537726 -28.745094 16.263235 -62.876481 -16.231489 -62.499393 -9.606612 0.000000 0.000000 0.000000 0.973627 -9.224040 -3.051002 6.251877 11.697129 -15.045158 -18.354865 1.600260 -8.883774 -20.758659 -12.135812 59.061547 7.235042 33.462056 10.505209 0.000000 0.000000 0.000000 
13.962616 86.584236 -9.676086 0.000000 0.000000 0.000000 13.422482 -60.317435 22.452707 -27.974440 20.296343 33.653609 24.251463 -13.901423 -7.263101 13.665347 -7.468730 -5.273305 -3.556872 -4.704055 -3.546509 0.000000 0.000000 0.000000 13.304503 -62.413872 23.210465 -28.572882 -12.410674 -25.241242 36.842054 12.385514 3.480047 -17.272106 -1.325362 22.404187 5.762920 -0.433756 -7.124230 0.000000 0.000000 0.000000 12.319441 -55.859421 22.885053 4.551037 0.004172 -0.445715 3.914597 -1.215721 -7.108129 0.230634 -1.367488 0.265560 0.000000 0.000000 0.000000 9.672323 -1.882463 -3.223911 -13.302768 39.154527 40.160402 -177.302435 86.463214 -169.266322 0.000000 0.000000 0.000000 8.629596 -5.492021 -0.986641 -5.333596 10.090509 5.837188 2.855175 -15.108518 -1.798656 -29.275915 18.395448 -62.973873 -17.411329 -66.337932 -10.271091 0.000000 0.000000 0.000000 0.133678 -9.269171 -3.502986 6.221691 10.480227 -14.917850 -19.471181 0.796284 -9.450199 -19.691814 -10.821969 59.904160 9.005659 32.363345 9.148862 0.000000 0.000000 0.000000 
